<svg width="737" height="260" viewBox="0 0 737 260" fill="none" xmlns="http://www.w3.org/2000/svg">
<path d="M28.7668 228.032L14.2586 231.391L0.724121 185.871L16.131 182.301L21.9984 204.796L28.1378 179.517L40.6304 176.622L47.972 199.181L52.9823 173.764L69.4288 169.955L57.633 221.339L42.3668 224.874L35.2079 204.366L28.7665 228.022L28.7668 228.032Z" fill="#231F20"/>
<path d="M88.978 197.2L89.6367 213.941L73.2583 217.734L71.3813 169.519L87.7597 165.726L88.4073 182.404L97.3592 180.333L96.7116 163.655L113.022 159.878L114.899 208.093L98.5886 211.87L97.9299 195.129L88.978 197.2Z" fill="#231F20"/>
<path d="M135.063 197.268L133.57 203.766L116.637 207.686L131.139 155.678L147.517 151.885L166.118 196.232L150.361 199.883L148.314 194.208L135.055 197.278L135.063 197.268ZM138.077 184.075L144.187 182.659L140.693 172.929L138.081 184.07L138.077 184.075Z" fill="#231F20"/>
<path d="M186.523 191.504L170.421 195.229L169.128 161.202L157.815 163.822L157.236 149.63L196.099 140.633L196.678 154.825L185.229 157.477L186.523 191.504Z" fill="#231F20"/>
<path d="M115.758 256.362L103.819 259.13L102.855 233.899L94.466 235.842L94.0377 225.321L122.859 218.649L123.287 229.17L114.798 231.135L115.763 256.367L115.758 256.362Z" fill="#231F20"/>
<path d="M138.944 238.462L139.431 250.874L127.283 253.685L125.891 217.933L138.038 215.122L138.515 227.488L145.156 225.951L144.68 213.584L156.773 210.784L158.165 246.537L146.072 249.337L145.585 236.925L138.944 238.462Z" fill="#231F20"/>
<path d="M161.97 245.659L160.577 209.907L187.646 203.636L188.025 213.473L172.791 217.002L172.917 219.879L187.38 216.529L187.77 226.411L173.307 229.761L173.368 232.603L188.603 229.074L188.989 239.404L161.97 245.659Z" fill="#231F20"/>
<path d="M192.242 234.488C192.25 233.272 192.305 232.269 192.594 231.555C193.094 229.994 194.365 229.246 196.939 228.649C200.688 227.783 202.35 228.572 202.474 232.121C202.569 233.426 202.437 234.445 202.112 235.168C201.591 236.657 200.15 237.369 197.654 237.95C193.827 238.833 192.334 237.892 192.247 234.493L192.242 234.488Z" fill="#231F20"/>
<path d="M205.511 231.418C205.519 230.202 205.574 229.199 205.863 228.486C206.363 226.925 207.634 226.176 210.207 225.579C213.957 224.713 215.619 225.502 215.743 229.051C215.838 230.356 215.706 231.375 215.381 232.098C214.86 233.587 213.419 234.299 210.922 234.88C207.096 235.763 205.603 234.822 205.516 231.423L205.511 231.418Z" fill="#231F20"/>
<path d="M218.784 228.344C218.792 227.127 218.848 226.124 219.136 225.411C219.636 223.85 220.907 223.102 223.481 222.505C227.23 221.638 228.892 222.428 229.016 225.977C229.112 227.281 228.979 228.301 228.654 229.024C228.133 230.512 226.692 231.225 224.196 231.806C220.369 232.688 218.876 231.747 218.789 228.348L218.784 228.344Z" fill="#231F20"/>
<path d="M266.663 221.973L239.753 228.207L213.008 136.727L241.593 130.108L253.275 175.288L263.868 124.947L287.047 119.579L301.482 164.934L309.967 114.27L340.481 107.202L320.224 209.565L291.897 216.126L277.87 174.878L266.658 221.969L266.663 221.973Z" fill="#231F20"/>
<path d="M377.798 162.323L379.586 195.823L349.199 202.86L344.085 106.367L374.473 99.3303L376.23 132.703L392.84 128.862L391.083 95.4888L421.343 88.4833L426.457 184.976L396.197 191.982L394.408 158.482L377.798 162.323Z" fill="#231F20"/>
<path d="M463.657 164.015L461.088 176.952L429.671 184.227L454.949 80.7013L485.336 73.6644L521.477 162.968L492.247 169.736L488.247 158.315L463.652 164.01L463.657 164.015ZM468.832 137.723L480.163 135.102L473.321 115.523L468.828 137.728L468.832 137.723Z" fill="#231F20"/>
<path d="M565.51 152.781L535.636 159.697L532.079 91.6082L511.093 96.4638L509.536 68.0685L581.641 51.374L583.198 79.7692L561.953 84.6924L565.506 152.786L565.51 152.781Z" fill="#231F20"/>
<path d="M629.674 63.0366C635.79 59.0008 640.684 55.6798 640.758 50.5886C640.83 45.2552 637.015 41.0853 626.59 40.9391C617.382 40.8099 607.863 45.5232 600.969 53.1907L578.077 26.2099C591.615 11.3674 611.838 3.8973 631.709 4.17443C663.696 4.61815 683.35 20.4064 683.028 43.6662C682.749 63.7835 670.26 72.8187 659.49 80.6664C651.659 86.1318 644.807 90.8855 644.697 98.6388C644.638 102.76 646.283 106.417 648.196 108.383L615.853 116.171C611.324 110.533 608.519 102.985 608.648 93.7677C608.882 77.0489 620.628 68.9743 629.679 63.0319L629.674 63.0366ZM630.498 125.586C642.858 125.759 653.136 136.321 652.963 148.68C652.79 161.04 642.224 171.314 629.864 171.141C617.505 170.968 607.231 160.402 607.399 148.047C607.572 135.687 618.139 125.414 630.493 125.582L630.498 125.586Z" fill="#EC037C"/>
<path d="M701.692 120.867C713.977 122.195 723.223 133.675 721.892 145.966C720.589 158.009 709.108 167.255 696.822 165.927C684.536 164.6 675.533 153.144 676.836 141.101C678.163 128.806 689.401 119.545 701.692 120.867ZM692.303 0.165039L736.638 4.95634L719.8 108.927L686.792 105.361L692.303 0.165039Z" fill="#EC037C"/>
</svg>
