<svg width="736" height="259" viewBox="0 0 736 259" fill="none" xmlns="http://www.w3.org/2000/svg">
<path d="M28.0427 227.866L13.5345 231.226L0 185.706L15.4069 182.136L21.2743 204.631L27.4137 179.352L39.9062 176.457L47.2479 199.016L52.2582 173.599L68.7047 169.79L56.9089 221.174L41.6427 224.709L34.4838 204.201L28.0423 227.857L28.0427 227.866Z" fill="white"/>
<path d="M88.2539 197.035L88.9126 213.776L72.5342 217.569L70.6572 169.354L87.0356 165.561L87.6832 182.239L96.6351 180.168L95.9875 163.49L112.298 159.713L114.175 207.928L97.8645 211.705L97.2057 194.964L88.2539 197.035Z" fill="white"/>
<path d="M134.339 197.103L132.845 203.601L115.913 207.521L130.415 155.513L146.793 151.72L165.394 196.067L149.637 199.718L147.59 194.043L134.33 197.113L134.339 197.103ZM137.353 183.91L143.463 182.494L139.968 172.764L137.357 183.905L137.353 183.91Z" fill="white"/>
<path d="M185.798 191.339L169.697 195.064L168.404 161.037L157.091 163.657L156.512 149.465L195.374 140.468L195.954 154.66L184.505 157.312L185.798 191.339Z" fill="white"/>
<path d="M115.034 256.197L103.095 258.965L102.131 233.733L93.7419 235.677L93.3135 225.156L122.135 218.484L122.563 229.005L114.074 230.97L115.039 256.202L115.034 256.197Z" fill="white"/>
<path d="M138.22 238.297L138.707 250.709L126.559 253.52L125.166 217.768L137.314 214.957L137.791 227.323L144.432 225.786L143.955 213.419L156.049 210.619L157.441 246.372L145.348 249.172L144.861 236.76L138.22 238.297Z" fill="white"/>
<path d="M161.246 245.494L159.853 209.742L186.922 203.471L187.301 213.308L172.067 216.837L172.193 219.714L186.656 216.364L187.046 226.246L172.583 229.596L172.644 232.438L187.879 228.909L188.265 239.239L161.246 245.494Z" fill="white"/>
<path d="M191.518 234.323C191.526 233.107 191.581 232.104 191.87 231.39C192.37 229.829 193.641 229.081 196.214 228.484C199.964 227.618 201.626 228.407 201.75 231.956C201.845 233.261 201.712 234.28 201.388 235.003C200.867 236.492 199.426 237.204 196.929 237.785C193.103 238.668 191.61 237.726 191.522 234.327L191.518 234.323Z" fill="white"/>
<path d="M204.787 231.253C204.795 230.037 204.85 229.034 205.139 228.321C205.639 226.76 206.91 226.011 209.483 225.414C213.233 224.548 214.894 225.337 215.019 228.886C215.114 230.191 214.981 231.21 214.656 231.933C214.136 233.422 212.695 234.134 210.198 234.715C206.371 235.598 204.879 234.657 204.791 231.258L204.787 231.253Z" fill="white"/>
<path d="M218.06 228.179C218.068 226.962 218.123 225.959 218.412 225.246C218.912 223.685 220.183 222.937 222.757 222.34C226.506 221.473 228.168 222.263 228.292 225.812C228.388 227.116 228.255 228.135 227.93 228.859C227.409 230.347 225.968 231.06 223.472 231.64C219.645 232.523 218.152 231.582 218.065 228.183L218.06 228.179Z" fill="white"/>
<path d="M265.938 221.808L239.028 228.042L212.284 136.562L240.869 129.943L252.55 175.122L263.144 124.781L286.323 119.414L300.758 164.769L309.243 114.105L339.757 107.037L319.5 209.4L291.173 215.961L277.145 174.713L265.934 221.804L265.938 221.808Z" fill="white"/>
<path d="M377.073 162.158L378.862 195.658L348.475 202.695L343.361 106.202L373.748 99.1652L375.506 132.538L392.116 128.697L390.358 95.3238L420.619 88.3183L425.733 184.811L395.472 191.817L393.684 158.317L377.073 162.158Z" fill="white"/>
<path d="M462.933 163.85L460.364 176.787L428.946 184.062L454.224 80.5362L484.612 73.4994L520.753 162.803L491.523 169.57L487.523 158.15L462.928 163.845L462.933 163.85ZM468.108 137.558L479.439 134.937L472.597 115.357L468.104 137.563L468.108 137.558Z" fill="white"/>
<path d="M564.786 152.616L534.911 159.532L531.355 91.4431L510.368 96.2988L508.812 67.9035L580.917 51.2089L582.474 79.6042L561.229 84.5274L564.781 152.621L564.786 152.616Z" fill="white"/>
<path d="M628.95 62.8715C635.065 58.8358 639.959 55.5148 640.034 50.4236C640.106 45.0901 636.29 40.9202 625.866 40.7741C616.658 40.6448 607.139 45.3581 600.245 53.0256L577.353 26.0449C590.891 11.2023 611.114 3.73226 630.984 4.00939C662.972 4.45312 682.626 20.2414 682.303 43.5012C682.025 63.6185 669.536 72.6536 658.766 80.5013C650.935 85.9668 644.083 90.7204 643.973 98.4738C643.913 102.595 645.559 106.252 647.472 108.218L615.128 116.006C610.6 110.368 607.795 102.82 607.924 93.6026C608.158 76.8839 619.904 68.8092 628.955 62.8668L628.95 62.8715ZM629.774 125.421C642.134 125.594 652.412 136.156 652.239 148.515C652.066 160.875 641.5 171.149 629.14 170.976C616.781 170.803 606.507 160.237 606.675 147.882C606.848 135.522 617.414 125.249 629.769 125.417L629.774 125.421Z" fill="#FFD70D"/>
<path d="M700.967 120.702C713.253 122.029 722.499 133.51 721.168 145.801C719.865 157.843 708.384 167.09 696.098 165.762C683.812 164.435 674.809 152.979 676.112 140.936C677.439 128.641 688.677 119.38 700.967 120.702ZM691.579 0L735.914 4.7913L719.076 108.762L686.068 105.196L691.579 0Z" fill="#FFD70D"/>
</svg>
