<svg width="218" height="218" viewBox="0 0 218 218" fill="none" xmlns="http://www.w3.org/2000/svg">
<rect width="218" height="218" rx="10" fill="white"/>
<path d="M75.322 125.179C77.0618 117.855 78.3899 111.925 74.8638 108.06C71.1651 104.016 65.3746 103.578 57.4658 110.803C50.4801 117.184 46.6685 127.41 46.9009 138.002L10.7769 133.905C10.4714 113.266 20.3591 93.4444 35.4329 79.6722C59.697 57.4997 85.5217 55.4943 101.645 73.138C115.59 88.3977 112.595 103.95 110.051 117.403C108.033 127.005 106.247 135.385 111.619 141.269C114.474 144.397 118.279 145.977 121.095 146.103L102.355 174.69C94.9976 173.654 87.5869 169.976 81.1988 162.983C69.6112 150.3 72.7256 135.99 75.322 125.172V125.179ZM119.946 171.436C129.322 162.87 144.449 163.548 153.015 172.924C161.581 182.3 160.897 197.427 151.521 205.993C142.145 214.559 127.018 213.875 118.452 204.506C109.885 195.13 110.569 180.003 119.939 171.436H119.946Z" fill="#EC037C"/>
<path d="M169.935 117.814C180.068 110.164 195.069 112.256 202.719 122.396C210.216 132.33 208.124 147.331 197.991 154.981C187.858 162.631 173.056 160.386 165.559 150.452C157.903 140.312 159.802 125.471 169.935 117.814ZM77.9849 34.0384L114.554 6.43408L175.095 96.1332L147.869 116.685L77.9849 34.0384Z" fill="#EC037C"/>
</svg>
