<svg width="83" height="83" viewBox="0 0 83 83" fill="none" xmlns="http://www.w3.org/2000/svg">
<rect width="83" height="83" rx="9.54023" fill="white"/>
<path d="M36.625 73.0547C36.625 72.2422 36.7891 71.6406 37.1172 71.25C37.4453 70.8594 37.8281 70.5391 38.2656 70.2891C38.7031 70.0391 39.0859 69.7578 39.4141 69.4453C39.7422 69.1172 39.9062 68.6172 39.9062 67.9453V50.8359C39.9062 50.1484 39.7422 49.6406 39.4141 49.3125C39.0859 48.9844 38.7031 48.7031 38.2656 48.4688C37.8281 48.2188 37.4453 47.8984 37.1172 47.5078C36.7891 47.1172 36.625 46.5234 36.625 45.7266C36.625 44.8516 36.8828 44.2109 37.3984 43.8047C37.9297 43.3828 38.6094 43.1719 39.4375 43.1719H53.4062C56.9062 43.1719 60.0469 43.8828 62.8281 45.3047C65.6094 46.7109 67.8047 48.7188 69.4141 51.3281C71.0391 53.9375 71.8516 57.0469 71.8516 60.6562C71.8516 63.7656 71.125 66.4375 69.6719 68.6719C68.2188 70.9062 66.2656 72.625 63.8125 73.8281C61.3594 75.0156 58.6406 75.6094 55.6562 75.6094H39.4375C38.5938 75.6094 37.9141 75.4062 37.3984 75C36.8828 74.5938 36.625 73.9453 36.625 73.0547ZM54.5547 70.3828C55.7109 70.3828 56.6484 70.0312 57.3672 69.3281C58.0859 68.625 58.6328 67.7422 59.0078 66.6797C59.3984 65.6172 59.6641 64.5156 59.8047 63.375C59.9453 62.2344 60.0156 61.2344 60.0156 60.375C60.0156 59.1719 59.9062 57.8828 59.6875 56.5078C59.4688 55.1172 59.0781 53.8125 58.5156 52.5938C57.9688 51.3594 57.2031 50.3516 56.2188 49.5703C55.25 48.7891 54 48.3984 52.4688 48.3984H51.4375V66.7266C51.4375 67.7891 51.6562 68.6641 52.0938 69.3516C52.5469 70.0391 53.3672 70.3828 54.5547 70.3828Z" fill="#06EAEA"/>
<path d="M20.9062 43.1719H32.1562C32.5781 43.1719 33 43.1562 33.4219 43.125C33.8438 43.0781 34.2578 43.0078 34.6641 42.9141C35.1484 42.8047 35.625 42.6953 36.0938 42.5859C36.5781 42.4609 37.0625 42.3984 37.5469 42.3984C38.7969 42.3984 39.6719 42.75 40.1719 43.4531C40.6719 44.1406 41.0469 45.0234 41.2969 46.1016L42.5859 51.4688C42.6641 51.8125 42.7031 52.1328 42.7031 52.4297C42.7031 53.2422 42.4453 53.8828 41.9297 54.3516C41.4141 54.8047 40.7578 55.0312 39.9609 55.0312C39.2734 55.0312 38.7266 54.8203 38.3203 54.3984C37.9297 53.9609 37.5938 53.4297 37.3125 52.8047C37.0312 52.1797 36.7266 51.5547 36.3984 50.9297C36.0859 50.3047 35.6641 49.7812 35.1328 49.3594C34.6172 48.9219 33.8984 48.7031 32.9766 48.7031H32.2969V67.9453C32.2969 68.5859 32.4531 69.0781 32.7656 69.4219C33.0781 69.7656 33.4297 70.0703 33.8203 70.3359C34.2266 70.5859 34.5859 70.9141 34.8984 71.3203C35.2109 71.7109 35.3672 72.2891 35.3672 73.0547C35.3672 73.9609 35.1094 74.6172 34.5938 75.0234C34.0938 75.4141 33.4141 75.6094 32.5547 75.6094H20.4844C19.6406 75.6094 18.9609 75.4062 18.4453 75C17.9297 74.5781 17.6719 73.9219 17.6719 73.0312C17.6719 72.2812 17.8281 71.7109 18.1406 71.3203C18.4531 70.9297 18.8125 70.6016 19.2188 70.3359C19.625 70.0703 19.9844 69.7734 20.2969 69.4453C20.6094 69.1016 20.7656 68.6016 20.7656 67.9453V48.7031H20.0859C19.1641 48.7031 18.4375 48.9219 17.9062 49.3594C17.3906 49.7812 16.9688 50.3047 16.6406 50.9297C16.3125 51.5547 16.0078 52.1875 15.7266 52.8281C15.4453 53.4531 15.1094 53.9844 14.7188 54.4219C14.3438 54.8438 13.8125 55.0547 13.125 55.0547C12.3125 55.0547 11.6484 54.8281 11.1328 54.375C10.6172 53.9062 10.3594 53.2578 10.3594 52.4297C10.3594 52.1328 10.3984 51.8125 10.4766 51.4688L11.7422 46.1016C12.0078 45.0078 12.3906 44.1172 12.8906 43.4297C13.3906 42.7422 14.2656 42.3984 15.5156 42.3984C15.9688 42.3984 16.4062 42.4531 16.8281 42.5625C17.2656 42.6719 17.7031 42.7734 18.1406 42.8672C18.5938 42.9609 19.0469 43.0391 19.5 43.1016C19.9688 43.1484 20.4375 43.1719 20.9062 43.1719Z" fill="#FF3AB3"/>
<path d="M56.0625 8C59.4062 8 62.3516 8.70312 64.8984 10.1094C67.4609 11.5 69.4609 13.4609 70.8984 15.9922C72.3516 18.5078 73.0781 21.4531 73.0781 24.8281C73.0781 28.25 72.3828 31.2812 70.9922 33.9219C69.6016 36.5469 67.6328 38.6094 65.0859 40.1094C62.5547 41.5938 59.5469 42.3359 56.0625 42.3359C52.5312 42.3359 49.4922 41.6172 46.9453 40.1797C44.3984 38.7266 42.4375 36.6953 41.0625 34.0859C39.6875 31.4766 39 28.4297 39 24.9453C39 21.6016 39.7266 18.6562 41.1797 16.1094C42.6484 13.5625 44.6641 11.5781 47.2266 10.1562C49.7891 8.71875 52.7344 8 56.0625 8ZM61.2188 32.0703C61.2188 29.6016 60.9766 27.2031 60.4922 24.875C60.3672 24.2812 60.1641 23.4922 59.8828 22.5078C59.6016 21.5234 59.2422 20.4844 58.8047 19.3906C58.3828 18.2969 57.8906 17.2578 57.3281 16.2734C56.7812 15.2891 56.1719 14.4922 55.5 13.8828C54.8438 13.2578 54.1406 12.9453 53.3906 12.9453C52.5938 12.9453 52.0234 13.2734 51.6797 13.9297C51.3516 14.5859 51.1484 15.3359 51.0703 16.1797C51.0078 17.0078 50.9766 17.7031 50.9766 18.2656C50.9766 20.2031 51.1328 22.1406 51.4453 24.0781C51.7734 26 52.2734 27.875 52.9453 29.7031C53.1328 30.2344 53.4141 30.9219 53.7891 31.7656C54.1797 32.6094 54.6406 33.4531 55.1719 34.2969C55.7031 35.1406 56.2734 35.8516 56.8828 36.4297C57.5078 37.0078 58.1484 37.2969 58.8047 37.2969C59.6016 37.2969 60.1641 36.9766 60.4922 36.3359C60.8359 35.6953 61.0391 34.9609 61.1016 34.1328C61.1797 33.3047 61.2188 32.6172 61.2188 32.0703Z" fill="#FEC300"/>
<path d="M40.3047 48.0781C38.0391 48.0781 36.0781 47.5078 34.4219 46.3672C32.7812 45.2422 31.4141 43.8203 30.3203 42.1016C29.3203 42.2578 28.2812 42.3359 27.2031 42.3359C23.6719 42.3359 20.6172 41.6172 18.0391 40.1797C15.4609 38.7422 13.4766 36.7266 12.0859 34.1328C10.6953 31.5234 10 28.4609 10 24.9453C10 21.5703 10.7344 18.6172 12.2031 16.0859C13.6875 13.5391 15.7266 11.5547 18.3203 10.1328C20.9141 8.71094 23.875 8 27.2031 8C30.5625 8 33.5312 8.69531 36.1094 10.0859C38.6875 11.4766 40.7031 13.4375 42.1562 15.9688C43.625 18.4844 44.3594 21.4375 44.3594 24.8281C44.3594 28.375 43.6016 31.5 42.0859 34.2031C40.5859 36.8906 38.4922 38.9375 35.8047 40.3438C36.3828 40.7344 37.0391 41.0391 37.7734 41.2578C38.5234 41.4609 39.375 41.5625 40.3281 41.5625C40.9375 41.5625 41.5391 41.4844 42.1328 41.3281C42.7422 41.1719 43.3516 41.0938 43.9609 41.0938C44.3984 41.0938 44.7734 41.2344 45.0859 41.5156C45.3984 41.7969 45.5547 42.1641 45.5547 42.6172C45.5547 42.9453 45.5078 43.2656 45.4141 43.5781C45.3203 43.8906 45.2109 44.2031 45.0859 44.5156C44.7266 45.4062 44.375 46.1094 44.0312 46.625C43.6875 47.1406 43.2344 47.5078 42.6719 47.7266C42.1094 47.9609 41.3203 48.0781 40.3047 48.0781ZM32.5 31.8828C32.5 29.4766 32.2578 27.1406 31.7734 24.875C31.6484 24.2656 31.4375 23.4688 31.1406 22.4844C30.8438 21.5 30.4766 20.4609 30.0391 19.3672C29.6016 18.2734 29.1016 17.2422 28.5391 16.2734C27.9766 15.2891 27.3594 14.4922 26.6875 13.8828C26.0156 13.2578 25.2969 12.9453 24.5312 12.9453C23.9062 12.9453 23.4141 13.1484 23.0547 13.5547C22.7109 13.9453 22.4609 14.4375 22.3047 15.0312C22.1484 15.625 22.0547 16.2344 22.0234 16.8594C21.9922 17.4688 21.9766 18 21.9766 18.4531C21.9766 22.3906 22.6406 26.1406 23.9688 29.7031C24.1562 30.2188 24.4375 30.8828 24.8125 31.6953C25.1875 32.4922 25.625 33.3047 26.125 34.1328C26.625 34.9453 27.1719 35.6328 27.7656 36.1953C27.5312 35.3516 27.3359 34.4922 27.1797 33.6172C27.1328 33.3516 27.1094 33.0859 27.1094 32.8203C27.1094 32.2266 27.25 31.6641 27.5312 31.1328C27.8125 30.5859 28.3047 30.3125 29.0078 30.3125C29.8047 30.3125 30.3516 30.5938 30.6484 31.1562C30.9453 31.7031 31.1953 32.2969 31.3984 32.9375C31.5234 33.3281 31.6484 33.7188 31.7734 34.1094C31.9141 34.4844 32.0547 34.8516 32.1953 35.2109C32.3359 34.6484 32.4219 34.0625 32.4531 33.4531C32.4844 32.8438 32.5 32.3203 32.5 31.8828Z" fill="#8C3AFF"/>
</svg>
