<svg width="124" height="54" viewBox="0 0 124 54" fill="none" xmlns="http://www.w3.org/2000/svg">
<rect width="124" height="54" rx="10" fill="white"/>
<path d="M85.9453 40.4453C85.9453 39.6328 86.1094 39.0312 86.4375 38.6406C86.7656 38.25 87.1484 37.9297 87.5859 37.6797C88.0234 37.4297 88.4062 37.1484 88.7344 36.8359C89.0625 36.5078 89.2266 36.0078 89.2266 35.3359V18.2266C89.2266 17.5391 89.0625 17.0312 88.7344 16.7031C88.4062 16.375 88.0234 16.0938 87.5859 15.8594C87.1484 15.6094 86.7656 15.2891 86.4375 14.8984C86.1094 14.5078 85.9453 13.9141 85.9453 13.1172C85.9453 12.2422 86.2031 11.6016 86.7188 11.1953C87.25 10.7734 87.9297 10.5625 88.7578 10.5625H102.727C106.227 10.5625 109.367 11.2734 112.148 12.6953C114.93 14.1016 117.125 16.1094 118.734 18.7188C120.359 21.3281 121.172 24.4375 121.172 28.0469C121.172 31.1562 120.445 33.8281 118.992 36.0625C117.539 38.2969 115.586 40.0156 113.133 41.2188C110.68 42.4062 107.961 43 104.977 43H88.7578C87.9141 43 87.2344 42.7969 86.7188 42.3906C86.2031 41.9844 85.9453 41.3359 85.9453 40.4453ZM103.875 37.7734C105.031 37.7734 105.969 37.4219 106.688 36.7188C107.406 36.0156 107.953 35.1328 108.328 34.0703C108.719 33.0078 108.984 31.9062 109.125 30.7656C109.266 29.625 109.336 28.625 109.336 27.7656C109.336 26.5625 109.227 25.2734 109.008 23.8984C108.789 22.5078 108.398 21.2031 107.836 19.9844C107.289 18.75 106.523 17.7422 105.539 16.9609C104.57 16.1797 103.32 15.7891 101.789 15.7891H100.758V34.1172C100.758 35.1797 100.977 36.0547 101.414 36.7422C101.867 37.4297 102.688 37.7734 103.875 37.7734Z" fill="#06EAEA"/>
<path d="M70.2266 10.5625H81.4766C81.8984 10.5625 82.3203 10.5469 82.7422 10.5156C83.1641 10.4688 83.5781 10.3984 83.9844 10.3047C84.4688 10.1953 84.9453 10.0859 85.4141 9.97656C85.8984 9.85156 86.3828 9.78906 86.8672 9.78906C88.1172 9.78906 88.9922 10.1406 89.4922 10.8438C89.9922 11.5312 90.3672 12.4141 90.6172 13.4922L91.9062 18.8594C91.9844 19.2031 92.0234 19.5234 92.0234 19.8203C92.0234 20.6328 91.7656 21.2734 91.25 21.7422C90.7344 22.1953 90.0781 22.4219 89.2812 22.4219C88.5938 22.4219 88.0469 22.2109 87.6406 21.7891C87.25 21.3516 86.9141 20.8203 86.6328 20.1953C86.3516 19.5703 86.0469 18.9453 85.7188 18.3203C85.4062 17.6953 84.9844 17.1719 84.4531 16.75C83.9375 16.3125 83.2188 16.0938 82.2969 16.0938H81.6172V35.3359C81.6172 35.9766 81.7734 36.4688 82.0859 36.8125C82.3984 37.1562 82.75 37.4609 83.1406 37.7266C83.5469 37.9766 83.9062 38.3047 84.2188 38.7109C84.5312 39.1016 84.6875 39.6797 84.6875 40.4453C84.6875 41.3516 84.4297 42.0078 83.9141 42.4141C83.4141 42.8047 82.7344 43 81.875 43H69.8047C68.9609 43 68.2812 42.7969 67.7656 42.3906C67.25 41.9688 66.9922 41.3125 66.9922 40.4219C66.9922 39.6719 67.1484 39.1016 67.4609 38.7109C67.7734 38.3203 68.1328 37.9922 68.5391 37.7266C68.9453 37.4609 69.3047 37.1641 69.6172 36.8359C69.9297 36.4922 70.0859 35.9922 70.0859 35.3359V16.0938H69.4062C68.4844 16.0938 67.7578 16.3125 67.2266 16.75C66.7109 17.1719 66.2891 17.6953 65.9609 18.3203C65.6328 18.9453 65.3281 19.5781 65.0469 20.2188C64.7656 20.8438 64.4297 21.375 64.0391 21.8125C63.6641 22.2344 63.1328 22.4453 62.4453 22.4453C61.6328 22.4453 60.9688 22.2188 60.4531 21.7656C59.9375 21.2969 59.6797 20.6484 59.6797 19.8203C59.6797 19.5234 59.7188 19.2031 59.7969 18.8594L61.0625 13.4922C61.3281 12.3984 61.7109 11.5078 62.2109 10.8203C62.7109 10.1328 63.5859 9.78906 64.8359 9.78906C65.2891 9.78906 65.7266 9.84375 66.1484 9.95312C66.5859 10.0625 67.0234 10.1641 67.4609 10.2578C67.9141 10.3516 68.3672 10.4297 68.8203 10.4922C69.2891 10.5391 69.7578 10.5625 70.2266 10.5625Z" fill="#FF3AB3"/>
<path d="M48.7031 9.60156C52.0469 9.60156 54.9922 10.3047 57.5391 11.7109C60.1016 13.1016 62.1016 15.0625 63.5391 17.5938C64.9922 20.1094 65.7188 23.0547 65.7188 26.4297C65.7188 29.8516 65.0234 32.8828 63.6328 35.5234C62.2422 38.1484 60.2734 40.2109 57.7266 41.7109C55.1953 43.1953 52.1875 43.9375 48.7031 43.9375C45.1719 43.9375 42.1328 43.2188 39.5859 41.7812C37.0391 40.3281 35.0781 38.2969 33.7031 35.6875C32.3281 33.0781 31.6406 30.0312 31.6406 26.5469C31.6406 23.2031 32.3672 20.2578 33.8203 17.7109C35.2891 15.1641 37.3047 13.1797 39.8672 11.7578C42.4297 10.3203 45.375 9.60156 48.7031 9.60156ZM53.8594 33.6719C53.8594 31.2031 53.6172 28.8047 53.1328 26.4766C53.0078 25.8828 52.8047 25.0938 52.5234 24.1094C52.2422 23.125 51.8828 22.0859 51.4453 20.9922C51.0234 19.8984 50.5312 18.8594 49.9688 17.875C49.4219 16.8906 48.8125 16.0938 48.1406 15.4844C47.4844 14.8594 46.7812 14.5469 46.0312 14.5469C45.2344 14.5469 44.6641 14.875 44.3203 15.5312C43.9922 16.1875 43.7891 16.9375 43.7109 17.7812C43.6484 18.6094 43.6172 19.3047 43.6172 19.8672C43.6172 21.8047 43.7734 23.7422 44.0859 25.6797C44.4141 27.6016 44.9141 29.4766 45.5859 31.3047C45.7734 31.8359 46.0547 32.5234 46.4297 33.3672C46.8203 34.2109 47.2812 35.0547 47.8125 35.8984C48.3438 36.7422 48.9141 37.4531 49.5234 38.0312C50.1484 38.6094 50.7891 38.8984 51.4453 38.8984C52.2422 38.8984 52.8047 38.5781 53.1328 37.9375C53.4766 37.2969 53.6797 36.5625 53.7422 35.7344C53.8203 34.9062 53.8594 34.2188 53.8594 33.6719Z" fill="#FEC300"/>
<path d="M32.9453 49.6797C30.6797 49.6797 28.7188 49.1094 27.0625 47.9688C25.4219 46.8438 24.0547 45.4219 22.9609 43.7031C21.9609 43.8594 20.9219 43.9375 19.8438 43.9375C16.3125 43.9375 13.2578 43.2188 10.6797 41.7812C8.10156 40.3438 6.11719 38.3281 4.72656 35.7344C3.33594 33.125 2.64062 30.0625 2.64062 26.5469C2.64062 23.1719 3.375 20.2188 4.84375 17.6875C6.32812 15.1406 8.36719 13.1562 10.9609 11.7344C13.5547 10.3125 16.5156 9.60156 19.8438 9.60156C23.2031 9.60156 26.1719 10.2969 28.75 11.6875C31.3281 13.0781 33.3438 15.0391 34.7969 17.5703C36.2656 20.0859 37 23.0391 37 26.4297C37 29.9766 36.2422 33.1016 34.7266 35.8047C33.2266 38.4922 31.1328 40.5391 28.4453 41.9453C29.0234 42.3359 29.6797 42.6406 30.4141 42.8594C31.1641 43.0625 32.0156 43.1641 32.9688 43.1641C33.5781 43.1641 34.1797 43.0859 34.7734 42.9297C35.3828 42.7734 35.9922 42.6953 36.6016 42.6953C37.0391 42.6953 37.4141 42.8359 37.7266 43.1172C38.0391 43.3984 38.1953 43.7656 38.1953 44.2188C38.1953 44.5469 38.1484 44.8672 38.0547 45.1797C37.9609 45.4922 37.8516 45.8047 37.7266 46.1172C37.3672 47.0078 37.0156 47.7109 36.6719 48.2266C36.3281 48.7422 35.875 49.1094 35.3125 49.3281C34.75 49.5625 33.9609 49.6797 32.9453 49.6797ZM25.1406 33.4844C25.1406 31.0781 24.8984 28.7422 24.4141 26.4766C24.2891 25.8672 24.0781 25.0703 23.7812 24.0859C23.4844 23.1016 23.1172 22.0625 22.6797 20.9688C22.2422 19.875 21.7422 18.8438 21.1797 17.875C20.6172 16.8906 20 16.0938 19.3281 15.4844C18.6562 14.8594 17.9375 14.5469 17.1719 14.5469C16.5469 14.5469 16.0547 14.75 15.6953 15.1562C15.3516 15.5469 15.1016 16.0391 14.9453 16.6328C14.7891 17.2266 14.6953 17.8359 14.6641 18.4609C14.6328 19.0703 14.6172 19.6016 14.6172 20.0547C14.6172 23.9922 15.2812 27.7422 16.6094 31.3047C16.7969 31.8203 17.0781 32.4844 17.4531 33.2969C17.8281 34.0938 18.2656 34.9062 18.7656 35.7344C19.2656 36.5469 19.8125 37.2344 20.4062 37.7969C20.1719 36.9531 19.9766 36.0938 19.8203 35.2188C19.7734 34.9531 19.75 34.6875 19.75 34.4219C19.75 33.8281 19.8906 33.2656 20.1719 32.7344C20.4531 32.1875 20.9453 31.9141 21.6484 31.9141C22.4453 31.9141 22.9922 32.1953 23.2891 32.7578C23.5859 33.3047 23.8359 33.8984 24.0391 34.5391C24.1641 34.9297 24.2891 35.3203 24.4141 35.7109C24.5547 36.0859 24.6953 36.4531 24.8359 36.8125C24.9766 36.25 25.0625 35.6641 25.0938 35.0547C25.125 34.4453 25.1406 33.9219 25.1406 33.4844Z" fill="#8C3AFF"/>
</svg>
