<svg width="758" height="176" viewBox="0 0 758 176" fill="none" xmlns="http://www.w3.org/2000/svg">
<path d="M18.0073 86.8944L3.11527 86.9572L0 39.57L15.8151 39.5006L16.5539 62.7369L28.1402 39.4457L40.9637 39.3901L43.1259 63.0152L53.642 39.3388L70.5236 39.2675L47.6388 86.7625L31.9689 86.8275L29.5304 65.2438L18.009 86.8855L18.0073 86.8944Z" fill="#231F20"/>
<path d="M83.5522 70.166L80.4862 86.6373L63.6744 86.7082L72.5241 39.2751L89.3358 39.2042L86.2731 55.6109L95.4614 55.5741L98.5241 39.1674L115.266 39.0968L106.416 86.5299L89.6745 86.6004L92.7405 70.1292L83.5522 70.166Z" fill="#231F20"/>
<path d="M128.478 80.4409L125.582 86.4466L108.202 86.5187L133.863 39.0146L150.675 38.9437L158.99 86.3094L142.816 86.3788L142.077 80.392L128.467 80.4482L128.478 80.4409ZM134.339 68.2429L140.611 68.2158L139.358 57.9529L134.344 68.2393L134.339 68.2429Z" fill="#231F20"/>
<path d="M179.935 86.2188L163.408 86.2847L169.685 52.8162L158.073 52.8655L160.652 38.8973L200.542 38.732L197.963 52.7002L186.211 52.7503L179.935 86.2188Z" fill="#231F20"/>
<path d="M96.5621 133.791L84.3068 133.845L88.9554 109.027L80.3443 109.064L82.257 98.7096L111.84 98.5869L109.927 108.941L101.214 108.978L96.5657 133.796L96.5621 133.791Z" fill="#231F20"/>
<path d="M123.137 121.471L120.863 133.683L108.394 133.733L114.955 98.56L127.424 98.5097L125.15 110.675L131.966 110.647L134.241 98.4816L146.654 98.4298L140.092 133.603L127.679 133.654L129.954 121.443L123.137 121.471Z" fill="#231F20"/>
<path d="M143.997 133.59L150.558 98.417L178.343 98.2981L176.535 107.975L160.897 108.041L160.383 110.874L175.228 110.812L173.42 120.535L158.574 120.597L158.004 123.382L173.642 123.316L171.73 133.475L143.997 133.59Z" fill="#231F20"/>
<path d="M175.991 129.402C176.268 128.217 176.545 127.251 176.984 126.62C177.818 125.208 179.222 124.76 181.865 124.748C185.713 124.734 187.158 125.872 186.493 129.36C186.298 130.653 185.942 131.618 185.465 132.251C184.628 133.587 183.065 133.963 180.502 133.976C176.574 133.989 175.327 132.741 175.995 129.407L175.991 129.402Z" fill="#231F20"/>
<path d="M189.611 129.347C189.888 128.163 190.164 127.197 190.604 126.565C191.437 125.154 192.842 124.706 195.484 124.694C199.332 124.679 200.778 125.817 200.113 129.305C199.917 130.599 199.562 131.563 199.085 132.197C198.247 133.533 196.684 133.908 194.121 133.922C190.194 133.935 188.947 132.686 189.614 129.352L189.611 129.347Z" fill="#231F20"/>
<path d="M203.235 129.289C203.512 128.105 203.789 127.139 204.228 126.507C205.062 125.096 206.466 124.648 209.109 124.636C212.957 124.621 214.402 125.759 213.737 129.247C213.542 130.541 213.186 131.505 212.709 132.139C211.872 133.475 210.309 133.85 207.746 133.864C203.818 133.877 202.571 132.628 203.239 129.294L203.235 129.289Z" fill="#231F20"/>
<path d="M251.335 133.683L223.713 133.8L217.897 38.6689L247.238 38.5456L248.621 85.1908L270.103 38.4469L293.894 38.347L297.924 85.7725L317.421 38.2466L348.743 38.1131L306.315 133.446L277.239 133.57L272.696 90.2393L251.332 133.677L251.335 133.683Z" fill="#231F20"/>
<path d="M372.922 100.131L367.247 133.195L336.055 133.326L352.442 38.0977L383.634 37.9666L377.955 70.8996L395.003 70.8329L400.682 37.8998L431.742 37.7712L415.355 133L384.295 133.128L389.971 100.065L372.922 100.131Z" fill="#231F20"/>
<path d="M456.275 120.799L450.904 132.846L418.655 132.981L466.237 37.6264L497.428 37.4953L512.89 132.586L482.887 132.711L481.516 120.688L456.271 120.794L456.275 120.799ZM467.145 96.3072L478.775 96.2614L476.44 75.6522L467.14 96.3109L467.145 96.3072Z" fill="#231F20"/>
<path d="M558.086 132.406L527.422 132.532L539.035 65.3472L517.495 65.4337L522.266 37.399L596.278 37.0909L591.507 65.1256L569.699 65.2207L558.08 132.409L558.086 132.406Z" fill="#231F20"/>
<path d="M640.535 59.1035C647.392 56.5226 652.9 54.3681 654.101 49.4199C655.352 44.2348 652.555 39.3235 642.422 36.8718C633.472 34.7062 623.145 37.1939 614.724 43.1439L598.377 11.7625C614.866 0.287397 636.242 -2.51748 655.557 2.15419C686.652 9.67233 702.32 29.4219 696.854 52.0325C692.126 71.5883 677.946 77.6327 665.705 82.8998C656.858 86.4948 649.123 89.6127 647.298 97.1489C646.328 101.155 647.122 105.085 648.552 107.426L615.287 107.857C612.12 101.355 611.057 93.3734 613.224 84.4138C617.155 68.1622 630.398 62.8899 640.54 59.0999L640.535 59.1035ZM627.483 120.282C639.497 123.188 647.181 135.764 644.275 147.778C641.368 159.793 628.789 167.471 616.775 164.564C604.76 161.658 597.082 149.079 599.983 137.068C602.889 125.054 615.469 117.376 627.48 120.277L627.483 120.282Z" fill="#EC037C"/>
<path d="M697.953 131.45C709.64 135.466 716.113 148.709 712.092 160.4C708.154 171.854 694.91 178.328 683.224 174.312C671.537 170.296 665.296 157.13 669.234 145.675C673.251 133.98 686.261 127.438 697.953 131.45ZM715.534 11.6665L757.707 26.1593L718.257 123.818L686.859 113.028L715.534 11.6665Z" fill="#EC037C"/>
</svg>
